<?xml version="1.0" encoding="utf-8"?>
<!-- Generator: Adobe Illustrator 24.1.0, SVG Export Plug-In . SVG Version: 6.00 Build 0)  -->
<svg version="1.1" id="Layer_1" xmlns="http://www.w3.org/2000/svg" xmlns:xlink="http://www.w3.org/1999/xlink" x="0px" y="0px"
	 viewBox="0 0 283.46 138.01" style="enable-background:new 0 0 283.46 138.01;" xml:space="preserve">
<style type="text/css">
	.st0{enable-background:new    ;}
	.st1{fill:#A07400;} <!-- Letter sides -->
	.st2{fill:#086868;}
	.st3{fill:#A07400;}
	.st4{fill:#066160;}
	.st5{fill:#6C571B;}
	.st6{fill:#C69214;}
	.st7{fill:#0B7373;}
	.st8{fill:#B06D00;}
	.st9{fill:#086867;}
	.st10{fill:#4298B5;}
	.st10{fill:#0e84b5;}
	.st11{fill:#086767;}
</style>
<g>
	<g class="st0">
		<g>
			<polygon class="st1" points="48.6,51.82 51.16,53.75 17.85,121.51 15.28,119.58 			"/>
		</g>
		<g>
			<polygon class="st2" points="55.32,66.61 57.89,68.53 48.82,89.06 46.25,87.13 			"/>
		</g>
		<g>
			<polygon class="st1" points="56.52,68.45 59.08,70.38 51.64,87.22 49.07,85.29 			"/>
		</g>
		<g>
			<polygon class="st4" points="29.76,119.58 32.33,121.51 17.85,121.51 15.28,119.58 			"/>
		</g>
		<g>
			<polygon class="st2" points="37.65,101.92 40.22,103.85 32.33,121.51 29.76,119.58 			"/>
		</g>
		<g>
			<polygon class="st5" points="81.12,51.82 83.69,53.75 51.16,53.75 48.6,51.82 			"/>
		</g>
		<g>
			<polygon class="st5" points="30.96,121.43 33.52,123.35 14.9,123.35 12.33,121.43 			"/>
		</g>
		<g>
			<polygon class="st1" points="38.84,103.77 41.4,105.7 33.52,123.35 30.96,121.43 			"/>
		</g>
		<g>
			<polygon class="st4" points="76.08,66.61 78.65,68.53 57.89,68.53 55.32,66.61 			"/>
		</g>
		<g>
			<polygon class="st5" points="73.26,68.45 75.83,70.38 59.08,70.38 56.52,68.45 			"/>
		</g>
		<g>
			<path class="st6" d="M46.25,87.13l9.07-20.53h20.76l-9.07,20.53H46.25z M73.26,68.45H56.52l-7.45,16.84h16.75L73.26,68.45"/>
		</g>
		<g>
			<polygon class="st5" points="67.01,87.13 69.58,89.06 48.82,89.06 46.25,87.13 			"/>
		</g>
		<g>
			<polygon class="st1" points="76.08,66.61 78.65,68.53 69.58,89.06 67.01,87.13 			"/>
		</g>
		<g>
			<polygon class="st7" points="81.12,51.82 83.69,53.75 91.83,72.38 89.27,70.45 			"/>
		</g>
		<g>
			<polygon class="st8" points="82.33,49.97 84.89,51.9 93.42,71.43 90.85,69.5 			"/>
		</g>
		<g>
			<polygon class="st8" points="90.85,69.5 93.42,71.43 93.85,72.42 91.28,70.49 			"/>
		</g>
		<g>
			<polygon class="st9" points="89.27,70.45 91.83,72.38 76.5,103.85 73.94,101.92 			"/>
		</g>
		<g>
			<polygon class="st1" points="91.28,70.49 93.85,72.42 85.15,90.28 82.58,88.35 			"/>
		</g>
		<g>
			<polygon class="st1" points="101.51,51.82 104.07,53.74 86.74,89.33 84.18,87.4 			"/>
		</g>
		<g>
			<path class="st10" d="M81.12,51.82l8.15,18.63l-15.33,31.48H37.65l-7.89,17.66H15.28L48.6,51.82H81.12z M67.01,87.13l9.07-20.53
				H55.32l-9.07,20.53H67.01"/>
		</g>
		<g>
			<polygon class="st4" points="73.94,101.92 76.5,103.85 40.22,103.85 37.65,101.92 			"/>
		</g>
		<g>
			<polygon class="st5" points="75.08,103.77 77.64,105.7 41.4,105.7 38.84,103.77 			"/>
		</g>
		<g>
			<path class="st6" d="M90.85,69.5l0.43,0.99l-8.7,17.86l-7.51,15.41H38.84l-7.88,17.66H12.33l35.11-71.45h34.88L90.85,69.5z
				 M73.94,101.92l15.33-31.48l-8.15-18.63H48.6l-33.31,67.77h14.48l7.89-17.66H73.94"/>
		</g>
		<g>
			<polygon class="st1" points="82.58,88.35 85.15,90.28 77.64,105.7 75.08,103.77 			"/>
		</g>
		<g>
			<polygon class="st5" points="115.8,51.82 118.37,53.74 104.07,53.74 101.51,51.82 			"/>
		</g>
		<g>
			<polygon class="st9" points="115.8,51.82 118.37,53.75 101.64,89.06 99.07,87.13 			"/>
		</g>
		<g>
			<polygon class="st1" points="118.7,49.97 121.27,51.9 104.54,87.22 101.98,85.29 			"/>
		</g>
		<g>
			<polygon class="st1" points="83.57,104.79 86.14,106.72 79.54,121.51 76.97,119.58 			"/>
		</g>
		<g>
			<polygon class="st8" points="84.18,87.4 86.74,89.33 93.16,103.85 90.59,101.92 			"/>
		</g>
		<g>
			<polygon class="st1" points="136.6,51.82 139.16,53.74 122.45,89.06 119.89,87.13 			"/>
		</g>
		<g>
			<polygon class="st5" points="119.89,87.13 122.45,89.06 101.64,89.06 99.07,87.13 			"/>
		</g>
		<g>
			<polygon class="st4" points="113.65,101.92 116.21,103.85 93.16,103.85 90.59,101.92 			"/>
		</g>
		<g>
			<polygon class="st5" points="151.53,51.82 154.09,53.74 139.16,53.74 136.6,51.82 			"/>
		</g>
		<g>
			<polygon class="st5" points="112.4,104.79 114.97,106.72 86.14,106.72 83.57,104.79 			"/>
		</g>
		<g>
			<polygon class="st1" points="113.65,101.92 116.21,103.85 114.97,106.72 112.4,104.79 			"/>
		</g>
		<g>
			<polygon class="st11" points="151.53,51.82 154.09,53.75 120.54,121.51 117.97,119.58 			"/>
		</g>
		<g>
			<polygon class="st1" points="153.56,49.97 156.12,51.9 137.59,89.34 135.02,87.41 			"/>
		</g>
		<g>
			<polygon class="st8" points="135.02,87.41 137.59,89.34 138.03,90.32 135.46,88.4 			"/>
		</g>
		<g>
			<polygon class="st1" points="172.18,16.5 174.75,18.43 139.62,89.37 137.05,87.44 			"/>
		</g>
		<g>
			<polygon class="st4" points="117.97,119.58 120.54,121.51 79.54,121.51 76.97,119.58 			"/>
		</g>
		<g>
			<path class="st6" d="M153.56,49.97l-18.53,37.44l0.44,0.99l-16.35,33.03H74.14l8.24-18.48h6.66l-6.45-14.6l8.7-17.86l-0.43-0.99
				l9.51-19.53h18.33l-16.72,35.32h16.75l16.71-35.32H153.56z M117.97,119.58l33.55-67.77H136.6l-16.71,35.32H99.07l16.73-35.32
				h-14.3L84.18,87.4l6.42,14.52h23.05l-1.25,2.87H83.57l-6.6,14.79H117.97"/>
		</g>
		<g>
			<polygon class="st10" points="151.53,51.82 117.97,119.58 76.97,119.58 83.57,104.79 112.4,104.79 113.65,101.92 90.59,101.92 
				84.18,87.4 101.51,51.82 115.8,51.82 99.07,87.13 119.89,87.13 136.6,51.82 			"/>
		</g>
		<g>
			<polygon class="st5" points="119.11,121.43 121.68,123.35 76.71,123.35 74.14,121.43 			"/>
		</g>
		<g>
			<polygon class="st1" points="135.46,88.4 138.03,90.32 121.68,123.35 119.11,121.43 			"/>
		</g>
		<g>
			<polygon class="st5" points="204.5,16.5 207.06,18.43 174.75,18.43 172.18,16.5 			"/>
		</g>
		<g>
			<polygon class="st9" points="179.21,31.29 181.77,33.22 154.51,89.06 151.95,87.13 			"/>
		</g>
		<g>
			<polygon class="st1" points="180.36,33.13 182.92,35.06 157.45,87.22 154.89,85.29 			"/>
		</g>
		<g>
			<polygon class="st8" points="137.05,87.44 139.62,89.37 146.08,103.85 143.51,101.92 			"/>
		</g>
		<g>
			<polygon class="st4" points="199.99,31.29 202.56,33.22 181.77,33.22 179.21,31.29 			"/>
		</g>
		<g>
			<polygon class="st5" points="197.06,33.13 199.63,35.06 182.92,35.06 180.36,33.13 			"/>
		</g>
		<g>
			<polygon class="st1" points="199.99,31.29 202.56,33.22 202.12,34.13 199.56,32.2 			"/>
		</g>
		<g>
			<polygon class="st1" points="199.56,32.2 202.12,34.13 201.72,34.95 199.16,33.02 			"/>
		</g>
		<g>
			<polygon class="st1" points="199.16,33.02 201.72,34.95 175.36,89.06 172.8,87.13 			"/>
		</g>
		<g>
			<polygon class="st5" points="172.8,87.13 175.36,89.06 154.51,89.06 151.95,87.13 			"/>
		</g>
		<g>
			<path class="st10" d="M204.5,16.5l8.31,18.5l-33.03,66.93h-36.26l-6.46-14.48l35.13-70.94H204.5z M199.56,32.2l0.43-0.92h-20.78
				l-27.26,55.85h20.85l26.36-54.11L199.56,32.2"/>
		</g>
		<g>
			<path class="st6" d="M151.95,87.13l27.26-55.85h20.78l-0.43,0.92l-0.4,0.82L172.8,87.13H151.95z M197.06,33.13h-16.7
				l-25.47,52.16h16.76L197.06,33.13"/>
		</g>
		<g>
			<polygon class="st7" points="204.5,16.5 207.06,18.43 215.38,36.92 212.81,35 			"/>
		</g>
		<g>
			<polygon class="st8" points="205.68,14.66 208.25,16.58 216.97,35.98 214.4,34.05 			"/>
		</g>
		<g>
			<polygon class="st8" points="214.4,34.05 216.97,35.98 217.4,36.96 214.84,35.03 			"/>
		</g>
		<g>
			<polygon class="st1" points="214.84,35.03 217.4,36.96 217.22,37.34 214.65,35.42 			"/>
		</g>
		<g>
			<polygon class="st11" points="212.81,35 215.38,36.92 182.34,103.85 179.78,101.92 			"/>
		</g>
		<g>
			<polygon class="st1" points="214.65,35.42 217.22,37.34 208.66,54.68 206.09,52.75 			"/>
		</g>
		<g>
			<polygon class="st1" points="225.11,16.5 227.68,18.43 210.25,53.73 207.69,51.81 			"/>
		</g>
		<g>
			<polygon class="st4" points="179.78,101.92 182.34,103.85 146.08,103.85 143.51,101.92 			"/>
		</g>
		<g>
			<polygon class="st5" points="180.92,103.77 183.48,105.7 144.89,105.7 142.33,103.77 			"/>
		</g>
		<g>
			<path class="st6" d="M214.4,34.05l0.44,0.98l-0.19,0.39l-8.56,17.34l-25.18,51.01h-38.59l-6.86-15.37l-0.44-0.99l18.53-37.44
				l17.49-35.32h34.64L214.4,34.05z M179.78,101.92L212.81,35l-8.31-18.5h-32.31l-35.13,70.94l6.46,14.48H179.78"/>
		</g>
		<g>
			<polygon class="st1" points="206.09,52.75 208.66,54.68 183.48,105.7 180.92,103.77 			"/>
		</g>
		<g>
			<polygon class="st2" points="231.97,31.29 234.54,33.22 226.35,51.42 223.78,49.49 			"/>
		</g>
		<g>
			<polygon class="st2" points="223.78,49.49 226.35,51.42 225.29,53.75 222.73,51.82 			"/>
		</g>
		<g>
			<polygon class="st1" points="233.16,33.13 235.72,35.06 228.14,51.9 225.58,49.97 			"/>
		</g>
		<g>
			<polygon class="st8" points="207.69,51.81 210.25,53.73 216.74,68.53 214.17,66.61 			"/>
		</g>
		<g>
			<polygon class="st1" points="198.07,87.13 200.63,89.06 194.25,103.85 191.68,101.92 			"/>
		</g>
		<g>
			<polygon class="st5" points="265.76,16.5 268.33,18.43 227.68,18.43 225.11,16.5 			"/>
		</g>
		<g>
			<polygon class="st5" points="239.59,51.82 242.16,53.75 225.29,53.75 222.73,51.82 			"/>
		</g>
		<g>
			<polygon class="st2" points="265.76,16.5 268.33,18.43 261.91,33.22 259.35,31.29 			"/>
		</g>
		<g>
			<polygon class="st4" points="259.35,31.29 261.91,33.22 234.54,33.22 231.97,31.29 			"/>
		</g>
		<g>
			<polygon class="st4" points="234.69,66.61 237.25,68.53 216.74,68.53 214.17,66.61 			"/>
		</g>
		<g>
			<polygon class="st5" points="231.89,68.45 234.46,70.38 215.53,70.38 212.96,68.45 			"/>
		</g>
		<g>
			<polygon class="st5" points="260.55,33.13 263.12,35.06 235.72,35.06 233.16,33.13 			"/>
		</g>
		<g>
			<polygon class="st1" points="268.56,14.66 271.13,16.58 263.12,35.06 260.55,33.13 			"/>
		</g>
		<g>
			<polygon class="st5" points="225.83,87.13 228.39,89.06 200.63,89.06 198.07,87.13 			"/>
		</g>
		<g>
			<polygon class="st1" points="234.69,66.61 237.25,68.53 228.39,89.06 225.83,87.13 			"/>
		</g>
		<g>
			<polygon class="st7" points="239.59,51.82 242.16,53.75 250.36,72.06 247.8,70.13 			"/>
		</g>
		<g>
			<polygon class="st8" points="240.79,49.97 243.36,51.9 252.39,72.08 249.82,70.15 			"/>
		</g>
		<g>
			<polygon class="st9" points="247.8,70.13 250.36,72.06 235.09,103.85 232.52,101.92 			"/>
		</g>
		<g>
			<polygon class="st4" points="232.52,101.92 235.09,103.85 194.25,103.85 191.68,101.92 			"/>
		</g>
		<g>
			<path class="st6" d="M260.55,33.13h-27.4l-7.58,16.84h15.21l9.03,20.18l-16.15,33.62h-44.78l7.97-18.48h27.76l7.27-16.84h-18.93
				l-6.87-15.7l8.56-17.34l0.19-0.39l-0.44-0.98l9.58-19.4h44.59L260.55,33.13z M223.78,49.49l8.19-18.2h27.38l6.42-14.79h-40.65
				l-17.43,35.31l6.48,14.8h20.52l-8.86,20.53h-27.76l-6.38,14.79h40.84l15.28-31.8l-8.2-18.31h-16.87L223.78,49.49"/>
		</g>
		<g>
			<polygon class="st10" points="265.76,16.5 259.35,31.29 231.97,31.29 223.78,49.49 222.73,51.82 239.59,51.82 247.8,70.13 
				232.52,101.92 191.68,101.92 198.07,87.13 225.83,87.13 234.69,66.61 214.17,66.61 207.69,51.81 225.11,16.5 			"/>
		</g>
		<g>
			<polygon class="st5" points="233.67,103.77 236.24,105.7 191.45,105.7 188.89,103.77 			"/>
		</g>
		<g>
			<polygon class="st1" points="249.82,70.15 252.39,72.08 236.24,105.7 233.67,103.77 			"/>
		</g>
	</g>
</g>
</svg>
